<svg width="42" height="42" viewBox="0 0 42 42" fill="none" xmlns="http://www.w3.org/2000/svg">
<rect width="42" height="42" rx="21" fill="#25D366"/>
<g clip-path="url(#clip0_537_6961)">
<path d="M26.7584 22.7914C26.7116 22.769 24.962 21.9074 24.651 21.7955C24.5241 21.7499 24.3881 21.7054 24.2435 21.7054C24.0073 21.7054 23.8088 21.8232 23.6542 22.0544C23.4794 22.3142 22.9503 22.9327 22.7868 23.1174C22.7655 23.1418 22.7363 23.171 22.7189 23.171C22.7032 23.171 22.4324 23.0595 22.3505 23.0239C20.4736 22.2086 19.0489 20.248 18.8536 19.9173C18.8257 19.8698 18.8245 19.8482 18.8243 19.8482C18.8311 19.8231 18.8942 19.7598 18.9268 19.7271C19.0221 19.6328 19.1254 19.5086 19.2253 19.3883C19.2726 19.3314 19.3199 19.2743 19.3664 19.2206C19.5114 19.0519 19.5759 18.921 19.6507 18.7694L19.6899 18.6906C19.8726 18.3277 19.7166 18.0215 19.6661 17.9226C19.6248 17.8399 18.886 16.0568 18.8074 15.8695C18.6186 15.4175 18.369 15.207 18.0221 15.207C17.99 15.207 18.0221 15.207 17.8872 15.2127C17.7228 15.2197 16.8279 15.3375 16.4322 15.5869C16.0126 15.8514 15.3027 16.6947 15.3027 18.1777C15.3027 19.5125 16.1497 20.7727 16.5134 21.252C16.5224 21.2641 16.539 21.2886 16.5631 21.3238C17.9558 23.3578 19.692 24.8651 21.452 25.5682C23.1464 26.245 23.9488 26.3232 24.405 26.3232H24.405C24.5967 26.3232 24.7502 26.3082 24.8855 26.2949L24.9714 26.2867C25.5567 26.2348 26.8431 25.5683 27.1357 24.7551C27.3662 24.1147 27.4269 23.415 27.2736 23.161C27.1686 22.9883 26.9875 22.9014 26.7584 22.7914Z" fill="white"/>
<path d="M21.213 9C14.7131 9 9.42497 14.2484 9.42497 20.6995C9.42497 22.786 9.98336 24.8284 11.0412 26.6159L9.0165 32.5883C8.97879 32.6996 9.00684 32.8227 9.0892 32.9066C9.14866 32.9673 9.22931 33 9.31167 33C9.34323 33 9.37502 32.9952 9.40603 32.9854L15.6336 31.0064C17.3377 31.917 19.2638 32.3976 21.2131 32.3976C27.7124 32.3977 33 27.1498 33 20.6995C33 14.2484 27.7124 9 21.213 9ZM21.213 29.9606C19.3788 29.9606 17.6023 29.4309 16.0752 28.4289C16.0238 28.3951 15.9642 28.3778 15.9042 28.3778C15.8725 28.3778 15.8407 28.3826 15.8097 28.3925L12.6901 29.3841L13.6972 26.413C13.7298 26.3169 13.7135 26.2108 13.6535 26.1288C12.4906 24.5398 11.8759 22.6625 11.8759 20.6995C11.8759 15.5922 16.0645 11.4371 21.2129 11.4371C26.3608 11.4371 30.5489 15.5922 30.5489 20.6995C30.549 25.8061 26.3609 29.9606 21.213 29.9606Z" fill="white"/>
</g>
<defs>
<clipPath id="clip0_537_6961">
<rect width="24" height="24" fill="white" transform="translate(9 9)"/>
</clipPath>
</defs>
</svg>
