<svg width="42" height="42" viewBox="0 0 42 42" fill="none" xmlns="http://www.w3.org/2000/svg">
<rect width="42" height="42" rx="21" fill="#3B5998"/>
<path d="M22.466 13.9671L22.5415 18.3673L26.5164 18.3077C26.8035 18.3077 27.0151 18.5612 26.9697 18.8297L26.4408 21.6787C26.3954 21.8875 26.2141 22.0367 26.0025 22.0516L22.602 22.1112L22.7834 32.9254L18.2494 33L18.068 22.1858L15.4987 22.2306C15.2418 22.2306 15.0453 22.0367 15.0453 21.7831L15 18.949C15 18.6955 15.1965 18.5016 15.4534 18.5016L18.0227 18.4568L17.9471 13.6091C17.9017 11.133 19.8967 9.10441 22.4055 9.05967L26.4861 9C26.743 9 26.9395 9.19391 26.9395 9.44749L27 13.0274C27 13.2809 26.8035 13.4748 26.5466 13.4748L22.9194 13.5345C22.6625 13.5196 22.466 13.7284 22.466 13.9671Z" fill="white"/>
</svg>
